<?xml version="1.0" encoding="UTF-8" standalone="no"?>
<!DOCTYPE svg PUBLIC "-//W3C//DTD SVG 1.0//EN" "http://www.w3.org/TR/2001/REC-SVG-20010904/DTD/svg10.dtd">
<!-- Generated by Microsoft Visio 11.0, SVG Export, v1.0 t1.svg t1 -->
<svg xmlns="http://www.w3.org/2000/svg" xmlns:xlink="http://www.w3.org/1999/xlink" xmlns:ev="http://www.w3.org/2001/xml-events"
		xmlns:v="http://schemas.microsoft.com/visio/2003/SVGExtensions/" width="8.88651in" height="3.67342in"
		viewBox="0 0 639.829 264.487" xml:space="preserve" color-interpolation-filters="sRGB" class="st14">
	<v:documentProperties v:langID="1033" v:viewMarkup="false">
		<v:userDefs>
			<v:ud v:nameU="msvNoAutoConnect" v:val="VT0(1):26"/>
			<v:ud v:nameU="msvLastAppliedDataGraphic" v:val="VT4()"/>
			<v:ud v:nameU="CPMState" v:prompt="" v:val="VT4(67108992,934,50,365,250,0)"/>
		</v:userDefs>
	</v:documentProperties>

	<style type="text/css">
	<![CDATA[
		.st1 {fill:none;stroke:none;stroke-linecap:round;stroke-linejoin:round;stroke-width:0.75}
		.st2 {fill:#000000;font-family:Calibri;font-size:1.00001em}
		.st3 {fill:#000000;font-family:Calibri;font-size:1.5em}
		.st4 {stroke:#000000;stroke-linecap:round;stroke-linejoin:round;stroke-width:1}
		.st5 {fill:none}
		.st6 {fill:#000000;font-family:Calibri;font-size:0.833336em}
		.st7 {font-size:1em}
		.st8 {stroke:#000000;stroke-linecap:round;stroke-linejoin:round;stroke-width:0.75}
		.st9 {stroke:#000000;stroke-linecap:round;stroke-linejoin:round;stroke-width:1.5}
		.st10 {fill:none;stroke:#000000;stroke-linecap:round;stroke-linejoin:round;stroke-width:1.5}
		.st11 {fill:#ffffff;stroke:#000000;stroke-linecap:round;stroke-linejoin:round;stroke-width:0.75}
		.st12 {fill:#000000;font-family:Calibri;font-size:1.16666em}
		.st13 {fill:#ffff00;stroke:#000000;stroke-linecap:round;stroke-linejoin:round;stroke-width:0.75}
		.st14 {fill:none;fill-rule:evenodd;font-size:12px;overflow:visible;stroke-linecap:square;stroke-miterlimit:3}
	]]>
	</style>

	<g v:mID="6" v:index="2" v:groupContext="foregroundPage">
		<title>t1</title>
		<v:pageProperties v:drawingScale="1" v:pageScale="1" v:drawingUnits="19" v:shadowOffsetX="8.50394"
				v:shadowOffsetY="-8.50394"/>
		<g id="shape2-1" v:mID="2" v:groupContext="shape" transform="translate(555.607,-215.837)">
			<title>Sheet.2</title>
			<desc>Nazad</desc>
			<v:textBlock v:margins="rect(4,4,4,4)"/>
			<v:textRect cx="32.7357" cy="254.487" width="65.48" height="20"/>
			<rect x="0" y="244.487" width="65.4713" height="20" class="st1"/>
			<text x="17.59" y="258.09" class="st2" v:langID="1033"><v:paragraph v:horizAlign="1"/><v:tabList/>Nazad</text>		</g>
		<g id="shape3-4" v:mID="3" v:groupContext="shape" transform="translate(22.9685,-223.002)">
			<title>Sheet.3</title>
			<desc>Transformator – T1</desc>
			<v:textBlock v:margins="rect(4,4,4,4)" v:tabSpace="42.5197"/>
			<v:textRect cx="80.7874" cy="253.119" width="161.58" height="22.7346"/>
			<rect x="0" y="241.752" width="161.575" height="22.7346" class="st1"/>
			<text x="10.18" y="258.52" class="st3" v:langID="1033"><v:paragraph v:horizAlign="1"/><v:tabList/>Transformator – T1</text>		</g>
		<g id="shape4-7" v:mID="4" v:groupContext="shape" transform="translate(-216.006,105.831) rotate(-90)">
			<title>h strelica</title>
			<v:custProps>
				<v:cp v:nameU="Row_1" v:lbl="TYPE" v:type="0" v:langID="1033"/>
				<v:cp v:nameU="Row_2" v:lbl="S_ID" v:type="0" v:langID="1033"/>
				<v:cp v:nameU="Row_3" v:lbl="PVID" v:type="0" v:ask="true" v:langID="1033" v:val="VT4(RTU-1:VPN-T1)"/>
				<v:cp v:nameU="Row_4" v:lbl="TYPE_SVG_SHAPE" v:type="0" v:invis="true" v:langID="1033" v:val="VT4(0)"/>
				<v:cp v:nameU="Row_5" v:lbl="CONNECTED_TO" v:type="0" v:langID="1033"/>
			</v:custProps>
			<path d="M7.37 244.22 L3.69 253.43 L0 244.22" class="st4"/>
			<path d="M3.69 264.49 L3.69 235.01" class="st4"/>
		</g>
		<g id="shape5-11" v:mID="5" v:groupContext="shape" transform="translate(110.843,-132.699)">
			<title>transformator.33</title>
			<v:custProps>
				<v:cp v:nameU="Row_1" v:lbl="TYPE" v:type="0" v:langID="1033"/>
				<v:cp v:nameU="Row_2" v:lbl="S_ID" v:type="0" v:langID="1033"/>
				<v:cp v:nameU="Row_3" v:lbl="PVID" v:type="0" v:ask="true" v:langID="1033" v:val="VT4(RTU-1:VPN-T1)"/>
				<v:cp v:nameU="Row_4" v:lbl="TYPE_SVG_SHAPE" v:type="0" v:invis="true" v:ask="false" v:langID="1033" v:val="VT4(0)"/>
				<v:cp v:nameU="Row_5" v:lbl="CONNECTED_TO" v:type="0" v:langID="1033"/>
			</v:custProps>
			<path d="M106.28 234.93 A29.3419 29.3419 0 0 1 60.62 259.53 A29.3419 29.3419 0 0 1 61.29 210.32 A29.3419 29.3419 0 0
						 1 106.28 234.93 ZM61.29 210.32 A29.3419 29.3419 0 0 1 60.62 259.53 A29.3419 29.3419 0 0 1 15.63 234.93 A29.3419
						 29.3419 0 0 1 61.29 210.32 Z" class="st5"/>
			<path d="M106.28 234.93 A29.3419 29.3419 0 0 1 60.62 259.53 A29.3419 29.3419 0 0 1 61.29 210.32 A29.3419 29.3419 0 0
						 1 106.28 234.93" class="st4"/>
			<path d="M106.28 234.93 L121.91 234.93" class="st4"/>
			<path d="M61.29 210.32 A29.3419 29.3419 0 0 1 60.62 259.53 A29.3419 29.3419 0 0 1 15.63 234.93 A29.3419 29.3419 0 0 1
						 61.29 210.32" class="st4"/>
			<path d="M0 234.93 L15.63 234.93" class="st4"/>
		</g>
		<g id="shape6-17" v:mID="6" v:groupContext="shape" transform="translate(48.4803,-156.073)">
			<title>osigurac.35</title>
			<v:custProps>
				<v:cp v:nameU="Row_1" v:lbl="TYPE" v:type="0" v:langID="1033"/>
				<v:cp v:nameU="Row_2" v:lbl="S_ID" v:type="0" v:langID="1033"/>
				<v:cp v:nameU="Row_3" v:lbl="PVID" v:type="0" v:invis="false" v:ask="true" v:langID="1033" v:val="VT4(RTU-1:OS-T1)"/>
				<v:cp v:nameU="Row_4" v:lbl="TYPE_SVG_SHAPE" v:type="0" v:invis="true" v:langID="1033" v:val="VT4(0)"/>
				<v:cp v:nameU="Row_6" v:lbl="CONNECT_TO" v:type="0" v:langID="1033"/>
			</v:custProps>
			<path d="M12.5 264.49 L12.5 251.98 L50.02 251.98 L50.02 264.49 L12.5 264.49 Z" class="st5"/>
			<path d="M62.52 258.23 L50.02 258.23" class="st4"/>
			<path d="M12.5 264.49 L12.5 251.98 L50.02 251.98 L50.02 264.49 L12.5 264.49" class="st4"/>
			<path d="M12.5 258.23 L0 258.23" class="st4"/>
		</g>
		<g id="shape7-22" v:mID="7" v:groupContext="shape" transform="translate(266.748,-173.703)">
			<title>Sheet.7</title>
			<desc>Aktivna snaga:</desc>
			<v:textBlock v:margins="rect(4,4,4,4)" v:tabSpace="42.5197"/>
			<v:textRect cx="51.3115" cy="255.487" width="102.63" height="18"/>
			<rect x="0" y="246.487" width="102.623" height="18" class="st1"/>
			<text x="21.85" y="258.49" class="st6" v:langID="9242"><v:paragraph v:horizAlign="1"/><v:tabList/>Aktivna snaga<tspan
						class="st7" v:langID="1033">:</tspan></text>		</g>
		<g id="shape8-26" v:mID="8" v:groupContext="shape" transform="translate(266.748,-154.626)">
			<title>Sheet.8</title>
			<desc>Reaktivna snaga:</desc>
			<v:textBlock v:margins="rect(4,4,4,4)" v:tabSpace="42.5197"/>
			<v:textRect cx="51.126" cy="254.448" width="102.26" height="20.0769"/>
			<rect x="0" y="244.41" width="102.252" height="20.0769" class="st1"/>
			<text x="16.96" y="257.45" class="st6" v:langID="9242"><v:paragraph v:horizAlign="1"/><v:tabList/>Reaktivna snaga<tspan
						class="st7" v:langID="1033">:</tspan></text>		</g>
		<g id="shape9-30" v:mID="9" v:groupContext="shape" transform="translate(266.748,-136.703)">
			<title>Sheet.9</title>
			<desc>Aktivna energija:</desc>
			<v:textBlock v:margins="rect(4,4,4,4)"/>
			<v:textRect cx="51.3115" cy="254.487" width="102.63" height="20"/>
			<rect x="0" y="244.487" width="102.623" height="20" class="st1"/>
			<text x="17.14" y="257.49" class="st6" v:langID="9242"><v:paragraph v:horizAlign="1"/><v:tabList/>Aktivna energija<tspan
						class="st7" v:langID="1033">:</tspan></text>		</g>
		<g id="shape10-34" v:mID="10" v:groupContext="shape" transform="translate(266.748,-118.703)">
			<title>Sheet.10</title>
			<desc>Reaktivna energija:</desc>
			<v:textBlock v:margins="rect(4,4,4,4)" v:tabSpace="42.5197"/>
			<v:textRect cx="51.3115" cy="254.487" width="102.63" height="20"/>
			<rect x="0" y="244.487" width="102.623" height="20" class="st1"/>
			<text x="12.43" y="257.49" class="st6" v:langID="9242"><v:paragraph v:horizAlign="1"/><v:tabList/>Reaktivna energija<tspan
						class="st7" v:langID="1033">:</tspan></text>		</g>
		<g id="shape11-38" v:mID="11" v:groupContext="shape" transform="translate(266.748,-191.703)">
			<title>Sheet.11</title>
			<path d="M0 264.49 L174.62 264.49" class="st8"/>
		</g>
		<g id="shape12-41" v:mID="12" v:groupContext="shape" transform="translate(267.126,-155.719) rotate(0.00517761)">
			<title>Sheet.12</title>
			<path d="M0 264.49 L174.27 264.49" class="st8"/>
		</g>
		<g id="shape13-44" v:mID="13" v:groupContext="shape" transform="translate(267.102,-137.703)">
			<title>Sheet.13</title>
			<path d="M0 264.49 L174.27 264.49" class="st8"/>
		</g>
		<g id="shape14-47" v:mID="14" v:groupContext="shape" transform="translate(266.748,-173.703)">
			<title>Sheet.14</title>
			<path d="M0 264.49 L174.62 264.49" class="st8"/>
		</g>
		<g id="shape15-50" v:mID="15" v:groupContext="shape" transform="translate(531.589,72.7838) rotate(90)">
			<title>Sheet.15</title>
			<path d="M0 264.49 L73 264.49" class="st8"/>
		</g>
		<g id="shape16-53" v:mID="16" v:groupContext="shape" transform="translate(633.858,72.7838) rotate(90)">
			<title>Sheet.16</title>
			<path d="M0 264.49 L73 264.49" class="st8"/>
		</g>
		<g id="shape17-56" v:mID="17" v:groupContext="shape" transform="translate(705.858,72.8159) rotate(90.007)">
			<title>Sheet.17</title>
			<path d="M0 264.49 L73 264.49" class="st8"/>
		</g>
		<g id="shape18-59" v:mID="18" v:groupContext="shape" transform="translate(368.795,-172.569)">
			<title>pvid label</title>
			<desc>???</desc>
			<v:custProps>
				<v:cp v:nameU="Row_1" v:lbl="TYPE" v:type="0" v:langID="1033"/>
				<v:cp v:nameU="Row_2" v:lbl="S_ID" v:type="0" v:langID="1033"/>
				<v:cp v:nameU="Row_3" v:lbl="PVID" v:type="0" v:ask="true" v:langID="1033" v:val="VT4(RTU-1:PA-T1)"/>
				<v:cp v:nameU="Row_4" v:lbl="TYPE_SVG_SHAPE" v:type="0" v:invis="true" v:ask="true" v:langID="1033" v:val="VT4(1)"/>
			</v:custProps>
			<v:textBlock v:margins="rect(4,4,4,4)"/>
			<v:textRect cx="17.0079" cy="254.487" width="34.02" height="20"/>
			<rect x="0" y="244.487" width="34.0157" height="20" class="st1"/>
			<text x="10.06" y="257.49" class="st6" v:langID="1033"><v:paragraph v:horizAlign="1"/><v:tabList/>???</text>		</g>
		<g id="shape19-62" v:mID="19" v:groupContext="shape" transform="translate(368.795,-155.482)">
			<title>pvid label.13</title>
			<desc>???</desc>
			<v:custProps>
				<v:cp v:nameU="Row_1" v:lbl="TYPE" v:type="0" v:langID="1033"/>
				<v:cp v:nameU="Row_2" v:lbl="S_ID" v:type="0" v:langID="1033"/>
				<v:cp v:nameU="Row_3" v:lbl="PVID" v:type="0" v:ask="true" v:langID="1033" v:val="VT4(RTU-1:PR-T1)"/>
				<v:cp v:nameU="Row_4" v:lbl="TYPE_SVG_SHAPE" v:type="0" v:invis="true" v:langID="1033" v:val="VT4(1)"/>
			</v:custProps>
			<v:textBlock v:margins="rect(4,4,4,4)"/>
			<v:textRect cx="17.0079" cy="255.235" width="34.02" height="18.5039"/>
			<rect x="0" y="245.983" width="34.0157" height="18.5039" class="st1"/>
			<text x="10.06" y="258.23" class="st6" v:langID="1033"><v:paragraph v:horizAlign="1"/><v:tabList/>???</text>		</g>
		<g id="shape20-65" v:mID="20" v:groupContext="shape" transform="translate(267.102,-118.703)">
			<title>Sheet.20</title>
			<path d="M0 264.49 L174.26 264.49" class="st8"/>
		</g>
		<g id="shape21-68" v:mID="21" v:groupContext="shape" transform="translate(400.685,-211.663)">
			<title>pozar.14</title>
			<v:custProps>
				<v:cp v:nameU="Row_1" v:lbl="TYPE" v:type="0" v:langID="1033"/>
				<v:cp v:nameU="Row_2" v:lbl="S_ID" v:type="0" v:langID="1033"/>
				<v:cp v:nameU="Row_3" v:lbl="PVID" v:type="0" v:ask="true" v:langID="1033" v:val="VT4(RTU-1:POZAR-T1)"/>
				<v:cp v:nameU="Row_4" v:lbl="TYPE_SVG_SHAPE" v:type="0" v:invis="true" v:langID="1033" v:val="VT4(0)"/>
			</v:custProps>
			<path d="M15.87 264.49 L0 256.55 L14.68 256.55 L7.94 246.63 L21.83 250.6 L17.86 239.09 L28.97 249.8 L35.72 238.69 L35.72
						 250.6 L45.64 244.64 L36.91 256.55 L49.61 253.77 L35.72 264.49 L15.87 264.49 Z" class="st5"/>
			<path d="M26.75 263.53 L29.76 260.52 L27.78 260.52 L26.79 257.14 L25.8 259.92 L21.83 258.93 L24.41 263.49" class="st9"/>
			<path d="M30.76 263.49 L35.72 258.53 L31.15 258.53 L34.72 253.57 L31.75 255.16 L31.75 250.6 L28.84 254.63 L23.81 249.6
						 L24.8 256.15 L15.87 253.57 L20.83 260.52 L13.89 260.52 L20.83 264.49" class="st9"/>
			<path d="M15.87 264.49 L0 256.55 L14.68 256.55 L7.94 246.63 L21.83 250.6 L17.86 239.09 L28.97 249.8 L35.72 238.69 L35.72
						 250.6 L45.64 244.64 L36.91 256.55 L49.61 253.77 L35.72 264.49 L15.87 264.49" class="st9"/>
		</g>
		<g id="shape22-73" v:mID="22" v:groupContext="shape" transform="translate(475.926,-213.648)">
			<title>prodor</title>
			<v:custProps>
				<v:cp v:nameU="Row_1" v:lbl="TYPE" v:type="0" v:langID="1033"/>
				<v:cp v:nameU="Row_2" v:lbl="S_ID" v:type="0" v:langID="1033"/>
				<v:cp v:nameU="Row_3" v:lbl="PVID" v:type="0" v:ask="true" v:langID="1033" v:val="VT4(RTU-1:PRODOR-T1)"/>
				<v:cp v:nameU="Row_4" v:lbl="TYPE_SVG_SHAPE" v:type="0" v:invis="true" v:langID="1033" v:val="VT4(0)"/>
			</v:custProps>
			<path d="M10.35 253.64 A2.33858 2.33858 0 1 1 5.67 253.64 A2.33858 2.33858 0 1 1 10.35 253.64 ZM17.01 258.99 A8.22047
						 7.51181 0 1 1 17.01 247.87 L17.01 258.99 ZM21.52 258.37 A11.3386 10.9134 0 1 1 21.33 248.41 L26.65 246.34
						 L26.77 248.8 L47.23 248.87 L48.78 252.1 L47.05 254.41 L40.47 256.21 L38.87 254.68 L37.05 254.5 L35.98 255.28
						 L32.52 254.68 L30.53 256.97 L28.79 256.77 L27.97 259.58 L21.52 258.37 Z" class="st10"/>
		</g>
		<g id="shape23-75" v:mID="23" v:groupContext="shape" transform="translate(348.953,-204.809)">
			<title>sijalica.17</title>
			<v:custProps>
				<v:cp v:nameU="Row_1" v:lbl="TYPE" v:type="0" v:langID="1033"/>
				<v:cp v:nameU="Row_2" v:lbl="S_ID" v:type="0" v:langID="1033"/>
				<v:cp v:nameU="Row_3" v:lbl="PVID" v:type="0" v:ask="true" v:langID="1033" v:val="VT4(RTU-1:SO-T1)"/>
				<v:cp v:nameU="Row_4" v:lbl="TYPE_SVG_SHAPE" v:type="0" v:invis="true" v:langID="1033" v:val="VT4(0)"/>
			</v:custProps>
			<path d="M14.86 258.17 A20.8501 5.27244 90 0 1 20.13 237.31 A5.75175 2.39656 -180 0 0 14.38 239.71 a0.877582 3.94912
						 0 0 1 -0.718969 -3.59485 A2.39656 3.59485 -180 0 0 11.26 239.71 A2.49228 2.22993 90 0 1 8.87 237.31 A2.39656
						 2.39656 -180 0 0 6.47 239.71 A18.6041 4.47441 90 0 1 11.26 258.4" class="st9"/>
			<path d="M7.43 257.69 A11.0274 4.36483 -16.27 0 0 18.45 259.36 A4.83049 1.45359 92.45 0 1 19.5 254.89 A4.83049 1.45359
						 92.45 0 1 20.08 254.48 A15.9272 13.1811 -90 1 0 6.69 254.77 A15.9272 13.1811 -90 0 0 6.8 254.85 a2.81787
						 0.621637 71.51 0 1 1.40535 2.95427" class="st9"/>
			<path d="M18.45 260.56 A10.7611 3.91715 164.65 0 1 7.43 259.36" class="st9"/>
			<path d="M18.45 262 A10.1795 2.83031 170.39 0 1 7.67 261.04" class="st9"/>
			<path d="M10.54 262.96 L10.54 263.68 A4.1456 1.20656 -6.3 0 0 14.86 264.4" class="st9"/>
			<path d="M15.1 264.4 L15.1 262.96" class="st9"/>
			<path d="M6.8 254.85 a2.81787 0.621637 -108.49 0 0 -0.108436 -0.0732938" class="st9"/>
			<path d="M19.5 254.89 A15.9272 13.1811 -90 0 0 20.08 254.48" class="st9"/>
		</g>
		<g id="shape24-85" v:mID="24" v:groupContext="shape" transform="translate(368.795,-135.719)">
			<title>pvid label.87</title>
			<desc>???</desc>
			<v:custProps>
				<v:cp v:nameU="Row_1" v:lbl="TYPE" v:type="0" v:langID="1033"/>
				<v:cp v:nameU="Row_2" v:lbl="S_ID" v:type="0" v:langID="1033"/>
				<v:cp v:nameU="Row_3" v:lbl="PVID" v:type="0" v:ask="true" v:langID="1033" v:val="VT4(RTU-1:EA-T1)"/>
				<v:cp v:nameU="Row_4" v:lbl="TYPE_SVG_SHAPE" v:type="0" v:invis="true" v:langID="1033" v:val="VT4(1)"/>
			</v:custProps>
			<v:textBlock v:margins="rect(4,4,4,4)"/>
			<v:textRect cx="17.0079" cy="254.487" width="34.02" height="20"/>
			<rect x="0" y="244.487" width="34.0157" height="20" class="st1"/>
			<text x="10.06" y="257.49" class="st6" v:langID="1033"><v:paragraph v:horizAlign="1"/><v:tabList/>???</text>		</g>
		<g id="shape25-88" v:mID="25" v:groupContext="shape" transform="translate(368.795,-117.372)">
			<title>pvid label.88</title>
			<desc>???</desc>
			<v:custProps>
				<v:cp v:nameU="Row_1" v:lbl="TYPE" v:type="0" v:langID="1033"/>
				<v:cp v:nameU="Row_2" v:lbl="S_ID" v:type="0" v:langID="1033"/>
				<v:cp v:nameU="Row_3" v:lbl="PVID" v:type="0" v:ask="true" v:langID="1033" v:val="VT4(RTU-1:ER-T1)"/>
				<v:cp v:nameU="Row_4" v:lbl="TYPE_SVG_SHAPE" v:type="0" v:invis="true" v:langID="1033" v:val="VT4(1)"/>
			</v:custProps>
			<v:textBlock v:margins="rect(4,4,4,4)"/>
			<v:textRect cx="17.0079" cy="254.487" width="34.02" height="20"/>
			<rect x="0" y="244.487" width="34.0157" height="20" class="st1"/>
			<text x="10.06" y="257.49" class="st6" v:langID="1033"><v:paragraph v:horizAlign="1"/><v:tabList/>???</text>		</g>
		<g id="shape26-91" v:mID="26" v:groupContext="shape" transform="translate(266.748,-93.5846)">
			<title>Sheet.26</title>
			<desc>Napon u fazi R:</desc>
			<v:textBlock v:margins="rect(4,4,4,4)" v:tabSpace="42.5197"/>
			<v:textRect cx="51.3115" cy="255.487" width="102.63" height="18"/>
			<rect x="0" y="246.487" width="102.623" height="18" class="st1"/>
			<text x="20.68" y="258.49" class="st6" v:langID="1033"><v:paragraph v:horizAlign="1"/><v:tabList/>Napon u fazi R:</text>		</g>
		<g id="shape27-94" v:mID="27" v:groupContext="shape" transform="translate(266.748,-74.5077)">
			<title>Sheet.27</title>
			<desc>Napon u fazi S:</desc>
			<v:textBlock v:margins="rect(4,4,4,4)" v:tabSpace="42.5197"/>
			<v:textRect cx="53.5615" cy="254.448" width="107.13" height="20.0769"/>
			<rect x="0" y="244.41" width="107.123" height="20.0769" class="st1"/>
			<text x="23.35" y="257.45" class="st6" v:langID="1033"><v:paragraph v:horizAlign="1"/><v:tabList/>Napon u fazi S:</text>		</g>
		<g id="shape28-97" v:mID="28" v:groupContext="shape" transform="translate(266.748,-56.5846)">
			<title>Sheet.28</title>
			<desc>Napon u fazi T:</desc>
			<v:textBlock v:margins="rect(4,4,4,4)"/>
			<v:textRect cx="51.3115" cy="254.487" width="102.63" height="20"/>
			<rect x="0" y="244.487" width="102.623" height="20" class="st1"/>
			<text x="20.96" y="257.49" class="st6" v:langID="1033"><v:paragraph v:horizAlign="1"/><v:tabList/>Napon u fazi T:</text>		</g>
		<g id="shape29-100" v:mID="29" v:groupContext="shape" transform="translate(266.748,-38.5846)">
			<title>Sheet.29</title>
			<desc>Frekvencija:</desc>
			<v:textBlock v:margins="rect(4,4,4,4)" v:tabSpace="42.5197"/>
			<v:textRect cx="51.3115" cy="254.487" width="102.63" height="20"/>
			<rect x="0" y="244.487" width="102.623" height="20" class="st1"/>
			<text x="26.95" y="257.49" class="st6" v:langID="1033"><v:paragraph v:horizAlign="1"/><v:tabList/>Frekvencija:</text>		</g>
		<g id="shape30-103" v:mID="30" v:groupContext="shape" transform="translate(266.748,-111.585)">
			<title>Sheet.30</title>
			<path d="M0 264.49 L174.62 264.49" class="st8"/>
		</g>
		<g id="shape31-106" v:mID="31" v:groupContext="shape" transform="translate(267.126,-75.6004) rotate(0.00517761)">
			<title>Sheet.31</title>
			<path d="M0 264.49 L174.27 264.49" class="st8"/>
		</g>
		<g id="shape32-109" v:mID="32" v:groupContext="shape" transform="translate(267.102,-57.5846)">
			<title>Sheet.32</title>
			<path d="M0 264.49 L174.27 264.49" class="st8"/>
		</g>
		<g id="shape33-112" v:mID="33" v:groupContext="shape" transform="translate(266.748,-93.5846)">
			<title>Sheet.33</title>
			<path d="M0 264.49 L174.62 264.49" class="st8"/>
		</g>
		<g id="shape34-115" v:mID="34" v:groupContext="shape" transform="translate(531.589,152.902) rotate(90)">
			<title>Sheet.34</title>
			<path d="M0 264.49 L92.76 264.49" class="st8"/>
		</g>
		<g id="shape35-118" v:mID="35" v:groupContext="shape" transform="translate(633.858,152.902) rotate(90)">
			<title>Sheet.35</title>
			<path d="M0 264.49 L92.76 264.49" class="st8"/>
		</g>
		<g id="shape36-121" v:mID="36" v:groupContext="shape" transform="translate(368.795,-92.4508)">
			<title>pvid label.96</title>
			<desc>???</desc>
			<v:custProps>
				<v:cp v:nameU="Row_1" v:lbl="TYPE" v:type="0" v:langID="1033"/>
				<v:cp v:nameU="Row_2" v:lbl="S_ID" v:type="0" v:langID="1033"/>
				<v:cp v:nameU="Row_3" v:lbl="PVID" v:type="0" v:ask="true" v:langID="1033" v:val="VT4(RTU-1:UR-T1)"/>
				<v:cp v:nameU="Row_4" v:lbl="TYPE_SVG_SHAPE" v:type="0" v:invis="true" v:langID="1033" v:val="VT4(1)"/>
			</v:custProps>
			<v:textBlock v:margins="rect(4,4,4,4)"/>
			<v:textRect cx="17.0079" cy="254.487" width="34.02" height="20"/>
			<rect x="0" y="244.487" width="34.0157" height="20" class="st1"/>
			<text x="10.06" y="257.49" class="st6" v:langID="1033"><v:paragraph v:horizAlign="1"/><v:tabList/>???</text>		</g>
		<g id="shape37-124" v:mID="37" v:groupContext="shape" transform="translate(368.795,-75.3642)">
			<title>pvid label.97</title>
			<desc>???</desc>
			<v:custProps>
				<v:cp v:nameU="Row_1" v:lbl="TYPE" v:type="0" v:langID="1033"/>
				<v:cp v:nameU="Row_2" v:lbl="S_ID" v:type="0" v:langID="1033"/>
				<v:cp v:nameU="Row_3" v:lbl="PVID" v:type="0" v:ask="true" v:langID="1033" v:val="VT4(RTU-1:US-T1)"/>
				<v:cp v:nameU="Row_4" v:lbl="TYPE_SVG_SHAPE" v:type="0" v:invis="true" v:langID="1033" v:val="VT4(1)"/>
			</v:custProps>
			<v:textBlock v:margins="rect(4,4,4,4)"/>
			<v:textRect cx="17.0079" cy="255.235" width="34.02" height="18.5039"/>
			<rect x="0" y="245.983" width="34.0157" height="18.5039" class="st1"/>
			<text x="10.06" y="258.23" class="st6" v:langID="1033"><v:paragraph v:horizAlign="1"/><v:tabList/>???</text>		</g>
		<g id="shape38-127" v:mID="38" v:groupContext="shape" transform="translate(267.102,-38.5846)">
			<title>Sheet.38</title>
			<path d="M0 264.49 L174.26 264.49" class="st8"/>
		</g>
		<g id="shape39-130" v:mID="39" v:groupContext="shape" transform="translate(368.795,-55.6004)">
			<title>pvid label.99</title>
			<desc>???</desc>
			<v:custProps>
				<v:cp v:nameU="Row_1" v:lbl="TYPE" v:type="0" v:langID="1033"/>
				<v:cp v:nameU="Row_2" v:lbl="S_ID" v:type="0" v:langID="1033"/>
				<v:cp v:nameU="Row_3" v:lbl="PVID" v:type="0" v:ask="true" v:langID="1033" v:val="VT4(RTU-1:UT-T1)"/>
				<v:cp v:nameU="Row_4" v:lbl="TYPE_SVG_SHAPE" v:type="0" v:invis="true" v:langID="1033" v:val="VT4(1)"/>
			</v:custProps>
			<v:textBlock v:margins="rect(4,4,4,4)"/>
			<v:textRect cx="17.0079" cy="254.487" width="34.02" height="20"/>
			<rect x="0" y="244.487" width="34.0157" height="20" class="st1"/>
			<text x="10.06" y="257.49" class="st6" v:langID="1033"><v:paragraph v:horizAlign="1"/><v:tabList/>???</text>		</g>
		<g id="shape40-133" v:mID="40" v:groupContext="shape" transform="translate(368.795,-37.2539)">
			<title>pvid label.100</title>
			<desc>???</desc>
			<v:custProps>
				<v:cp v:nameU="Row_1" v:lbl="TYPE" v:type="0" v:langID="1033"/>
				<v:cp v:nameU="Row_2" v:lbl="S_ID" v:type="0" v:langID="1033"/>
				<v:cp v:nameU="Row_3" v:lbl="PVID" v:type="0" v:ask="true" v:langID="1033" v:val="VT4(RTU-1:FR-T1)"/>
				<v:cp v:nameU="Row_4" v:lbl="TYPE_SVG_SHAPE" v:type="0" v:invis="true" v:langID="1033" v:val="VT4(1)"/>
			</v:custProps>
			<v:textBlock v:margins="rect(4,4,4,4)"/>
			<v:textRect cx="17.0079" cy="254.487" width="34.02" height="20"/>
			<rect x="0" y="244.487" width="34.0157" height="20" class="st1"/>
			<text x="10.06" y="257.49" class="st6" v:langID="1033"><v:paragraph v:horizAlign="1"/><v:tabList/>???</text>		</g>
		<g id="shape41-136" v:mID="41" v:groupContext="shape" transform="translate(37.9921,-82.4114)">
			<title>Sheet.41</title>
			<desc>Struja u fazi R:</desc>
			<v:textBlock v:margins="rect(4,4,4,4)" v:tabSpace="42.5197"/>
			<v:textRect cx="51.3115" cy="255.487" width="102.63" height="18"/>
			<rect x="0" y="246.487" width="102.623" height="18" class="st1"/>
			<text x="22.26" y="258.49" class="st6" v:langID="1033"><v:paragraph v:horizAlign="1"/><v:tabList/>Struja u fazi R:</text>		</g>
		<g id="shape42-139" v:mID="42" v:groupContext="shape" transform="translate(37.9921,-63.3345)">
			<title>Sheet.42</title>
			<desc>Struja u fazi S:</desc>
			<v:textBlock v:margins="rect(4,4,4,4)" v:tabSpace="42.5197"/>
			<v:textRect cx="53.5615" cy="254.448" width="107.13" height="20.0769"/>
			<rect x="0" y="244.41" width="107.123" height="20.0769" class="st1"/>
			<text x="24.93" y="257.45" class="st6" v:langID="1033"><v:paragraph v:horizAlign="1"/><v:tabList/>Struja u fazi S:</text>		</g>
		<g id="shape43-142" v:mID="43" v:groupContext="shape" transform="translate(37.9921,-45.4114)">
			<title>Sheet.43</title>
			<desc>Struja u fazi T:</desc>
			<v:textBlock v:margins="rect(4,4,4,4)"/>
			<v:textRect cx="51.3115" cy="254.487" width="102.63" height="20"/>
			<rect x="0" y="244.487" width="102.623" height="20" class="st1"/>
			<text x="22.54" y="257.49" class="st6" v:langID="1033"><v:paragraph v:horizAlign="1"/><v:tabList/>Struja u fazi T:</text>		</g>
		<g id="shape44-145" v:mID="44" v:groupContext="shape" transform="translate(37.9921,-100.411)">
			<title>Sheet.44</title>
			<path d="M0 264.49 L174.62 264.49" class="st8"/>
		</g>
		<g id="shape45-148" v:mID="45" v:groupContext="shape" transform="translate(38.3704,-64.4272) rotate(0.00517761)">
			<title>Sheet.45</title>
			<path d="M0 264.49 L174.27 264.49" class="st8"/>
		</g>
		<g id="shape46-151" v:mID="46" v:groupContext="shape" transform="translate(38.3465,-46.4114)">
			<title>Sheet.46</title>
			<path d="M0 264.49 L174.27 264.49" class="st8"/>
		</g>
		<g id="shape47-154" v:mID="47" v:groupContext="shape" transform="translate(37.9921,-82.4114)">
			<title>Sheet.47</title>
			<path d="M0 264.49 L174.62 264.49" class="st8"/>
		</g>
		<g id="shape48-157" v:mID="48" v:groupContext="shape" transform="translate(302.833,164.075) rotate(90)">
			<title>Sheet.48</title>
			<path d="M0 264.49 L73 264.49" class="st8"/>
		</g>
		<g id="shape49-160" v:mID="49" v:groupContext="shape" transform="translate(405.102,164.075) rotate(90)">
			<title>Sheet.49</title>
			<path d="M0 264.49 L73 264.49" class="st8"/>
		</g>
		<g id="shape50-163" v:mID="50" v:groupContext="shape" transform="translate(477.102,164.107) rotate(90.007)">
			<title>Sheet.50</title>
			<path d="M0 264.49 L73 264.49" class="st8"/>
		</g>
		<g id="shape51-166" v:mID="51" v:groupContext="shape" transform="translate(140.039,-81.2776)">
			<title>pvid label.112</title>
			<desc>???</desc>
			<v:custProps>
				<v:cp v:nameU="Row_1" v:lbl="TYPE" v:type="0" v:langID="1033"/>
				<v:cp v:nameU="Row_2" v:lbl="S_ID" v:type="0" v:langID="1033"/>
				<v:cp v:nameU="Row_3" v:lbl="PVID" v:type="0" v:ask="true" v:langID="1033" v:val="VT4(RTU-1:JR-T1)"/>
				<v:cp v:nameU="Row_4" v:lbl="TYPE_SVG_SHAPE" v:type="2" v:invis="true" v:langID="1033" v:val="VT0(1):26"/>
			</v:custProps>
			<v:textBlock v:margins="rect(4,4,4,4)"/>
			<v:textRect cx="17.0079" cy="254.487" width="34.02" height="20"/>
			<rect x="0" y="244.487" width="34.0157" height="20" class="st1"/>
			<text x="10.06" y="257.49" class="st6" v:langID="1033"><v:paragraph v:horizAlign="1"/><v:tabList/>???</text>		</g>
		<g id="shape52-169" v:mID="52" v:groupContext="shape" transform="translate(140.039,-64.1909)">
			<title>pvid label.113</title>
			<desc>???</desc>
			<v:custProps>
				<v:cp v:nameU="Row_1" v:lbl="TYPE" v:type="0" v:langID="1033"/>
				<v:cp v:nameU="Row_2" v:lbl="S_ID" v:type="0" v:langID="1033"/>
				<v:cp v:nameU="Row_3" v:lbl="PVID" v:type="0" v:ask="true" v:langID="1033" v:val="VT4(RTU-1:JS-T1)"/>
				<v:cp v:nameU="Row_4" v:lbl="TYPE_SVG_SHAPE" v:type="0" v:invis="true" v:langID="1033" v:val="VT4(1)"/>
			</v:custProps>
			<v:textBlock v:margins="rect(4,4,4,4)"/>
			<v:textRect cx="17.0079" cy="255.235" width="34.02" height="18.5039"/>
			<rect x="0" y="245.983" width="34.0157" height="18.5039" class="st1"/>
			<text x="10.06" y="258.23" class="st6" v:langID="1033"><v:paragraph v:horizAlign="1"/><v:tabList/>???</text>		</g>
		<g id="shape53-172" v:mID="53" v:groupContext="shape" transform="translate(38.3465,-27.4114)">
			<title>Sheet.53</title>
			<path d="M0 264.49 L174.26 264.49" class="st8"/>
		</g>
		<g id="shape54-175" v:mID="54" v:groupContext="shape" transform="translate(140.039,-44.4272)">
			<title>pvid label.115</title>
			<desc>???</desc>
			<v:custProps>
				<v:cp v:nameU="Row_1" v:lbl="TYPE" v:type="0" v:langID="1033"/>
				<v:cp v:nameU="Row_2" v:lbl="S_ID" v:type="0" v:langID="1033"/>
				<v:cp v:nameU="Row_3" v:lbl="PVID" v:type="0" v:ask="true" v:langID="1033" v:val="VT4(RTU-1:JT-T1)"/>
				<v:cp v:nameU="Row_4" v:lbl="TYPE_SVG_SHAPE" v:type="0" v:invis="true" v:langID="1033" v:val="VT4(1)"/>
			</v:custProps>
			<v:textBlock v:margins="rect(4,4,4,4)"/>
			<v:textRect cx="17.0079" cy="254.487" width="34.02" height="20"/>
			<rect x="0" y="244.487" width="34.0157" height="20" class="st1"/>
			<text x="10.06" y="257.49" class="st6" v:langID="1033"><v:paragraph v:horizAlign="1"/><v:tabList/>???</text>		</g>
		<g id="shape55-178" v:mID="55" v:groupContext="shape" transform="translate(37.4163,-27.4941)">
			<title>Sheet.55</title>
			<desc>Temperatura ulja:</desc>
			<v:textBlock v:margins="rect(4,4,4,4)" v:tabSpace="42.5197"/>
			<v:textRect cx="51.3115" cy="255.487" width="102.63" height="18"/>
			<rect x="0" y="246.487" width="102.623" height="18" class="st1"/>
			<text x="14.87" y="258.49" class="st6" v:langID="1033"><v:paragraph v:horizAlign="1"/><v:tabList/>Temperatura ulja:  </text>		</g>
		<g id="shape56-181" v:mID="56" v:groupContext="shape" transform="translate(140.039,-27.4941)">
			<title>pvid label.125</title>
			<desc>???</desc>
			<v:custProps>
				<v:cp v:nameU="Row_1" v:lbl="TYPE" v:type="0" v:langID="1033"/>
				<v:cp v:nameU="Row_2" v:lbl="S_ID" v:type="0" v:langID="1033"/>
				<v:cp v:nameU="Row_3" v:lbl="PVID" v:type="0" v:ask="true" v:langID="1033" v:val="VT4(RTU-1:TEMP-T1)"/>
				<v:cp v:nameU="Row_4" v:lbl="TYPE_SVG_SHAPE" v:type="0" v:invis="true" v:langID="1033" v:val="VT4(1)"/>
			</v:custProps>
			<v:textBlock v:margins="rect(4,4,4,4)"/>
			<v:textRect cx="17.7165" cy="255.274" width="35.44" height="18.4252"/>
			<rect x="0" y="246.061" width="35.4331" height="18.4252" class="st1"/>
			<text x="10.77" y="258.27" class="st6" v:langID="1033"><v:paragraph v:horizAlign="1"/><v:tabList/>???</text>		</g>
		<g id="shape57-184" v:mID="57" v:groupContext="shape" transform="translate(453.906,-171.748)">
			<title>Sheet.57</title>
			<desc>Automat motora prekidaca</desc>
			<v:textBlock v:margins="rect(4,4,4,4)"/>
			<v:textRect cx="65.25" cy="254.448" width="130.5" height="20.0769"/>
			<rect x="0" y="244.41" width="130.5" height="20.0769" class="st1"/>
			<text x="10.2" y="257.45" class="st6" v:langID="1033"><v:paragraph v:horizAlign="1"/><v:tabList/>Automat motora prekidaca</text>		</g>
		<g id="shape58-187" v:mID="58" v:groupContext="shape" transform="translate(453.906,-153.825)">
			<title>Sheet.58</title>
			<desc>Buholc najava</desc>
			<v:textBlock v:margins="rect(4,4,4,4)"/>
			<v:textRect cx="63" cy="254.487" width="126" height="20"/>
			<rect x="0" y="244.487" width="126" height="20" class="st1"/>
			<text x="34.73" y="257.49" class="st6" v:langID="1033"><v:paragraph v:horizAlign="1"/><v:tabList/>Buholc najava</text>		</g>
		<g id="shape59-190" v:mID="59" v:groupContext="shape" transform="translate(453.906,-135.825)">
			<title>Sheet.59</title>
			<desc>Buholc prorada</desc>
			<v:textBlock v:margins="rect(4,4,4,4)"/>
			<v:textRect cx="63" cy="254.487" width="126" height="20"/>
			<rect x="0" y="244.487" width="126" height="20" class="st1"/>
			<text x="31.83" y="257.49" class="st6" v:langID="1033"><v:paragraph v:horizAlign="1"/><v:tabList/>Buholc prorada</text>		</g>
		<g id="shape60-193" v:mID="60" v:groupContext="shape" transform="translate(453.906,-172.825)">
			<title>Sheet.60</title>
			<path d="M0 264.49 L153 264.49" class="st8"/>
		</g>
		<g id="shape61-196" v:mID="61" v:groupContext="shape" transform="translate(453.906,-154.825)">
			<title>Sheet.61</title>
			<path d="M0 264.49 L153 264.49" class="st8"/>
		</g>
		<g id="shape62-199" v:mID="62" v:groupContext="shape" transform="translate(454.884,-136.823) rotate(0.212027)">
			<title>Sheet.62</title>
			<path d="M0 264.49 L153 264.49" class="st8"/>
		</g>
		<g id="shape63-202" v:mID="63" v:groupContext="shape" transform="translate(453.906,-118.825)">
			<title>Sheet.63</title>
			<path d="M0 264.49 L153 264.49" class="st8"/>
		</g>
		<g id="shape64-205" v:mID="64" v:groupContext="shape" transform="translate(453.906,-190.825)">
			<title>Sheet.64</title>
			<path d="M0 264.49 L153 264.49" class="st8"/>
		</g>
		<g id="shape65-208" v:mID="65" v:groupContext="shape" transform="translate(718.392,73.6618) rotate(90)">
			<title>Sheet.65</title>
			<path d="M0 264.49 L72 264.49" class="st8"/>
		</g>
		<g id="shape66-211" v:mID="66" v:groupContext="shape" transform="translate(844.392,73.6618) rotate(90)">
			<title>Sheet.66</title>
			<path d="M0 264.49 L72 264.49" class="st8"/>
		</g>
		<g id="shape67-214" v:mID="67" v:groupContext="shape" transform="translate(587.736,-176.439)">
			<title>ind.110</title>
			<v:custProps>
				<v:cp v:nameU="Row_1" v:lbl="TYPE" v:type="0" v:langID="1033"/>
				<v:cp v:nameU="Row_2" v:lbl="S_ID" v:type="0" v:langID="1033"/>
				<v:cp v:nameU="Row_3" v:lbl="PVID" v:type="0" v:ask="true" v:langID="1033" v:val="VT4(RTU-1:AMP-T1)"/>
				<v:cp v:nameU="Row_4" v:lbl="TYPE_SVG_SHAPE" v:type="0" v:invis="true" v:langID="1033" v:val="VT4(0)"/>
			</v:custProps>
			<ellipse cx="5.66929" cy="259.101" rx="5.66929" ry="5.38583" class="st11"/>
		</g>
		<g id="shape68-216" v:mID="68" v:groupContext="shape" transform="translate(587.692,-158.2)">
			<title>ind.116</title>
			<v:custProps>
				<v:cp v:nameU="Row_1" v:lbl="TYPE" v:type="0" v:langID="1033"/>
				<v:cp v:nameU="Row_2" v:lbl="S_ID" v:type="0" v:langID="1033"/>
				<v:cp v:nameU="Row_3" v:lbl="PVID" v:type="0" v:ask="true" v:langID="1033" v:val="VT4(RTU-1:BN-T1)"/>
				<v:cp v:nameU="Row_4" v:lbl="TYPE_SVG_SHAPE" v:type="0" v:invis="true" v:langID="1033" v:val="VT4(0)"/>
			</v:custProps>
			<ellipse cx="5.66929" cy="259.101" rx="5.66929" ry="5.38583" class="st11"/>
		</g>
		<g id="shape69-218" v:mID="69" v:groupContext="shape" transform="translate(587.781,-140.678)">
			<title>ind.117</title>
			<v:custProps>
				<v:cp v:nameU="Row_1" v:lbl="TYPE" v:type="0" v:langID="1033"/>
				<v:cp v:nameU="Row_2" v:lbl="S_ID" v:type="0" v:langID="1033"/>
				<v:cp v:nameU="Row_3" v:lbl="PVID" v:type="0" v:ask="true" v:langID="1033" v:val="VT4(RTU-1:BP-T1)"/>
				<v:cp v:nameU="Row_4" v:lbl="TYPE_SVG_SHAPE" v:type="0" v:invis="true" v:langID="1033" v:val="VT4(0)"/>
			</v:custProps>
			<ellipse cx="5.66929" cy="259.101" rx="5.66929" ry="5.38583" class="st11"/>
		</g>
		<g id="shape70-220" v:mID="70" v:groupContext="shape" transform="translate(871.392,73.6618) rotate(90)">
			<title>Sheet.70</title>
			<path d="M0 264.49 L72 264.49" class="st8"/>
		</g>
		<g id="shape71-223" v:mID="71" v:groupContext="shape" transform="translate(455.606,-118.116)">
			<title>Sheet.71</title>
			<desc>Prekostrujna zastita</desc>
			<v:textBlock v:margins="rect(4,4,4,4)"/>
			<v:textRect cx="63" cy="254.487" width="126" height="20"/>
			<rect x="0" y="244.487" width="126" height="20" class="st1"/>
			<text x="22.71" y="257.49" class="st6" v:langID="9242"><v:paragraph v:horizAlign="1"/><v:tabList/>Prekostrujna zastita</text>		</g>
		<g id="shape72-226" v:mID="72" v:groupContext="shape" transform="translate(587.984,-122.368)">
			<title>ind.45</title>
			<v:custProps>
				<v:cp v:nameU="Row_1" v:lbl="TYPE" v:type="0" v:langID="1033"/>
				<v:cp v:nameU="Row_2" v:lbl="S_ID" v:type="0" v:langID="1033"/>
				<v:cp v:nameU="Row_3" v:lbl="PVID" v:type="0" v:ask="true" v:langID="1033" v:val="VT4(RTU-1:ZTP-T1)"/>
				<v:cp v:nameU="Row_4" v:lbl="TYPE_SVG_SHAPE" v:type="0" v:invis="true" v:langID="1033" v:val="VT4(0)"/>
			</v:custProps>
			<ellipse cx="5.66929" cy="259.101" rx="5.66929" ry="5.38583" class="st11"/>
		</g>
		<g id="shape73-228" v:mID="73" v:groupContext="shape" transform="translate(267.102,-18.8287)">
			<title>Sheet.73</title>
			<path d="M0 264.49 L174.27 264.49" class="st8"/>
		</g>
		<g id="shape74-231" v:mID="74" v:groupContext="shape" transform="translate(705.858,152.902) rotate(90)">
			<title>Sheet.74</title>
			<path d="M0 264.49 L92.76 264.49" class="st8"/>
		</g>
		<g id="shape75-234" v:mID="75" v:groupContext="shape" transform="translate(267.319,-18.75)">
			<title>Sheet.75</title>
			<desc>Cos Φ:</desc>
			<v:textBlock v:margins="rect(4,4,4,4)" v:tabSpace="42.5197"/>
			<v:textRect cx="51.3115" cy="254.487" width="102.63" height="20"/>
			<rect x="0" y="244.487" width="102.623" height="20" class="st1"/>
			<text x="37.79" y="257.49" class="st6" v:langID="1033"><v:paragraph v:horizAlign="1"/><v:tabList/>Cos Φ:</text>		</g>
		<g id="shape76-237" v:mID="76" v:groupContext="shape" transform="translate(369.934,-18.75)">
			<title>pvid label.54</title>
			<desc>???</desc>
			<v:custProps>
				<v:cp v:nameU="Row_1" v:lbl="TYPE" v:type="0" v:langID="1033"/>
				<v:cp v:nameU="Row_2" v:lbl="S_ID" v:type="0" v:langID="1033"/>
				<v:cp v:nameU="Row_3" v:lbl="PVID" v:type="0" v:ask="true" v:langID="1033" v:val="VT4(RTU-1:COSF-T1)"/>
				<v:cp v:nameU="Row_4" v:lbl="TYPE_SVG_SHAPE" v:type="0" v:invis="true" v:langID="1033" v:val="VT4(1)"/>
			</v:custProps>
			<v:textBlock v:margins="rect(4,4,4,4)"/>
			<v:textRect cx="17.0079" cy="254.487" width="34.02" height="20"/>
			<rect x="0" y="244.487" width="34.0157" height="20" class="st1"/>
			<text x="10.06" y="257.49" class="st6" v:langID="1033"><v:paragraph v:horizAlign="1"/><v:tabList/>???</text>		</g>
		<g id="shape77-240" v:mID="77" v:groupContext="shape" transform="translate(459,-18.3678)">
			<title>aa</title>
			<desc>SF6</desc>
			<v:custProps>
				<v:cp v:nameU="Row_1" v:lbl="TYPE" v:type="0" v:langID="1033"/>
				<v:cp v:nameU="Row_2" v:lbl="S_ID" v:type="0" v:langID="1033"/>
				<v:cp v:nameU="Row_3" v:lbl="PVID" v:type="0" v:ask="true" v:langID="1033" v:val="VT4(RTU-1:SF6-T1)"/>
				<v:cp v:nameU="Row_4" v:lbl="TYPE_SVG_SHAPE" v:type="0" v:invis="true" v:langID="1033" v:val="VT4(0)"/>
			</v:custProps>
			<v:textBlock v:margins="rect(4,4,4,4)"/>
			<v:textRect cx="19.1339" cy="251.17" width="38.27" height="26.6322"/>
			<rect x="0" y="237.854" width="38.2677" height="26.6322" class="st10"/>
			<text x="9.15" y="255.37" class="st12" v:langID="1033"><v:paragraph v:horizAlign="1"/><v:tabList/>SF6</text>		</g>
		<g id="shape78-243" v:mID="78" v:groupContext="shape" transform="translate(516.366,-18.3678)">
			<title>AC</title>
			<desc>AC</desc>
			<v:custProps>
				<v:cp v:nameU="Row_1" v:lbl="TYPE" v:type="0" v:langID="1033"/>
				<v:cp v:nameU="Row_2" v:lbl="S_ID" v:type="0" v:langID="1033"/>
				<v:cp v:nameU="Row_3" v:lbl="PVID" v:type="0" v:ask="true" v:langID="1033" v:val="VT4(RTU-1:AC-T1)"/>
				<v:cp v:nameU="Row_4" v:lbl="TYPE_SVG_SHAPE" v:type="0" v:invis="true" v:langID="1033" v:val="VT4(0)"/>
			</v:custProps>
			<v:textBlock v:margins="rect(4,4,4,4)"/>
			<v:textRect cx="19.1339" cy="251.17" width="38.27" height="26.6322"/>
			<rect x="0" y="237.854" width="38.2677" height="26.6322" class="st10"/>
			<text x="11.35" y="255.37" class="st12" v:langID="1033"><v:paragraph v:horizAlign="1"/><v:tabList/>AC</text>		</g>
		<g id="shape79-246" v:mID="79" v:groupContext="shape" transform="translate(266.748,-211.245)">
			<title>DK</title>
			<desc>DK</desc>
			<v:custProps>
				<v:cp v:nameU="Row_1" v:lbl="TYPE" v:type="0" v:langID="1033"/>
				<v:cp v:nameU="Row_2" v:lbl="S_ID" v:type="0" v:langID="1033"/>
				<v:cp v:nameU="Row_3" v:lbl="PVID" v:type="0" v:ask="true" v:langID="1033" v:val="VT4(RTU-1:DK-T1)"/>
				<v:cp v:nameU="Row_4" v:lbl="TYPE_SVG_SHAPE" v:type="0" v:invis="true" v:langID="1033" v:val="VT4(0)"/>
			</v:custProps>
			<v:textBlock v:margins="rect(4,4,4,4)"/>
			<v:textRect cx="19.1339" cy="251.17" width="38.27" height="26.6322"/>
			<rect x="0" y="237.854" width="38.2677" height="26.6322" class="st10"/>
			<text x="11.19" y="255.37" class="st12" v:langID="1033"><v:paragraph v:horizAlign="1"/><v:tabList/>DK</text>		</g>
		<g id="shape80-249" v:mID="80" v:groupContext="shape" transform="translate(573.732,-18.3678)">
			<title>DC</title>
			<desc>DC</desc>
			<v:custProps>
				<v:cp v:nameU="Row_1" v:lbl="TYPE" v:type="0" v:langID="1033"/>
				<v:cp v:nameU="Row_2" v:lbl="S_ID" v:type="0" v:langID="1033"/>
				<v:cp v:nameU="Row_3" v:lbl="PVID" v:type="0" v:ask="true" v:langID="1033" v:val="VT4(RTU-1:DC-T1)"/>
				<v:cp v:nameU="Row_4" v:lbl="TYPE_SVG_SHAPE" v:type="0" v:invis="true" v:langID="1033" v:val="VT4(0)"/>
			</v:custProps>
			<v:textBlock v:margins="rect(4,4,4,4)"/>
			<v:textRect cx="19.1339" cy="251.17" width="38.27" height="26.6322"/>
			<rect x="0" y="237.854" width="38.2677" height="26.6322" class="st10"/>
			<text x="11.09" y="255.37" class="st12" v:langID="1033"><v:paragraph v:horizAlign="1"/><v:tabList/>DC</text>		</g>
		<g id="shape81-252" v:mID="81" v:groupContext="shape" transform="translate(609.449,-221.244)">
			<title>button.126</title>
			<v:custProps>
				<v:cp v:nameU="Row_1" v:lbl="TYPE" v:type="0" v:langID="1033"/>
				<v:cp v:nameU="Row_2" v:lbl="S_ID" v:type="0" v:langID="1033"/>
				<v:cp v:nameU="Row_3" v:lbl="TYPE_SVG_SHAPE" v:type="0" v:invis="true" v:langID="1033" v:val="VT4(2)"/>
				<v:cp v:nameU="Row_4" v:lbl="SVG_LINK" v:type="0" v:ask="true" v:langID="1033" v:val="VT4(dSchema.svg)"/>
			</v:custProps>
			<rect x="0" y="253.431" width="11.0551" height="11.0551" class="st13"/>
		</g>
	</g>
</svg>
